HIERARCHY
ROOT Hips
{
  OFFSET 1.44925e-005 102.336 -0.101585
  CHANNELS 6 Xposition Yposition Zposition Zrotation Xrotation Yrotation
  JOINT LeftUpLeg
  {
    OFFSET 8.9458 -8.66707 0.101652
    CHANNELS 3 Zrotation Xrotation Yrotation
    JOINT LeftLeg
    {
      OFFSET 0 -44.4227 1.3727
      CHANNELS 3 Zrotation Xrotation Yrotation
      JOINT LeftFoot
      {
        OFFSET -0.253549 -42.0924 -1.46059
        CHANNELS 3 Zrotation Xrotation Yrotation
        JOINT LeftToes
        {
          OFFSET -0.04 -4.41509 8.4991
          CHANNELS 3 Zrotation Xrotation Yrotation
          End Site
          {
            OFFSET 0.08 -0.047448 9.77979
          }
        }
      }
    }
  }
  JOINT Spine
  {
    OFFSET 0 11.8905 0
    CHANNELS 3 Zrotation Xrotation Yrotation
    JOINT Spine1
    {
      OFFSET 0 25.6574 0.127663
      CHANNELS 3 Zrotation Xrotation Yrotation
      JOINT RightShoulder
      {
        OFFSET -8.99 -0.362252 -0.22
        CHANNELS 3 Zrotation Xrotation Yrotation
        JOINT RightArm
        {
          OFFSET -10.2827 -0.00338 0.322123
          CHANNELS 3 Zrotation Xrotation Yrotation
          JOINT RightForeArm
          {
            OFFSET -26.364 0.099144 -1.42434
            CHANNELS 3 Zrotation Xrotation Yrotation
            JOINT RightHand
            {
              OFFSET -22.0324 0.085362 1.02216
              CHANNELS 3 Zrotation Xrotation Yrotation
              End Site
              {
                OFFSET -13.3284 -0.6 1.50291
              }
            }
          }
        }
      }
      JOINT LeftShoulder1
      {
        OFFSET 8.99 -0.362252 -0.22
        CHANNELS 3 Zrotation Xrotation Yrotation
        JOINT LeftArm
        {
          OFFSET 10.2827 -0.00337999 0.322123
          CHANNELS 3 Zrotation Xrotation Yrotation
          JOINT LeftForeArm
          {
            OFFSET 26.2597 0.099144 -1.42434
            CHANNELS 3 Zrotation Xrotation Yrotation
            JOINT LeftHand
            {
              OFFSET 22.0902 0.085362 1.02216
              CHANNELS 3 Zrotation Xrotation Yrotation
              End Site
              {
                OFFSET 13.419 -0.6 1.50291
              }
            }
          }
        }
      }
      JOINT Head
      {
        OFFSET 0 8.73416 0.011341
        CHANNELS 3 Zrotation Xrotation Yrotation
        End Site
        {
          OFFSET -0.29 12.7742 2.51395
        }
      }
    }
  }
  JOINT RightUpLeg
  {
    OFFSET -8.9458 -8.66707 0.101652
    CHANNELS 3 Zrotation Xrotation Yrotation
    JOINT RightLeg
    {
      OFFSET 0 -44.4227 1.3727
      CHANNELS 3 Zrotation Xrotation Yrotation
      JOINT RightFoot
      {
        OFFSET 0.253549 -42.0924 -1.46059
        CHANNELS 3 Zrotation Xrotation Yrotation
        JOINT RightToes
        {
          OFFSET 0.04 -4.41509 8.4991
          CHANNELS 3 Zrotation Xrotation Yrotation
          End Site
          {
            OFFSET -0.08 -0.137448 9.77979
          }
        }
      }
    }
  }
}
MOTION
Frames:	8
Frame Time:	0.0333333
189.277 103.076 9.34696 -4.06994 0.0923631 -89.7751 -2.26174 2.78526 1.80688 -0.375658 8.39822 19.8688 -0.830846 -11.9143 0.0167289 -1.3927e-009 8.75205e-006 -1.47609e-008 2.45563 5.49708 -0.308231 -4.0665 -5.5209 0.368689 36.4862 1.75482 0.101041 38.6634 -22.0623 -0.171146 7.29818 39.2645 8.39619 -9.40012 9.49014 0.0539497 -44.0364 3.6095 -3.6203 -26.7873 -18.2625 -0.465074 -8.95713 42.7937 -7.7381 5.82328 9.61819 -0.917488 1.2599 0.927931 -4.73533 -0.219017 2.11964 -3.79167 0.18086 9.92266 -10.9004 3.1299 -12.4648 -0.0717105 0.0462048 0.000530889 0.662642 
189.333 103.076 9.31189 -4.0854 0.104098 -89.8442 -2.25734 2.7562 1.80958 -0.366194 8.42766 19.9263 -0.851482 -11.8996 0.016728 -1.3927e-009 8.75205e-006 -1.47609e-008 2.50828 5.56331 -0.280519 -4.13578 -5.49025 0.408352 36.5518 1.75482 0.0880941 38.6798 -21.8565 -0.100417 7.11376 39.3608 8.66095 -9.31221 9.4799 0.253123 -43.9524 3.60075 -3.61597 -26.9832 -18.5012 -0.594987 -9.05711 43.0197 -7.54797 5.82328 9.61819 -0.917488 1.30322 0.887655 -4.94015 -0.221562 2.08892 -3.80599 0.206072 9.93258 -10.785 3.08192 -12.4714 -0.0724701 0.0462048 0.000530889 0.662642 
189.431 103.075 9.25142 -4.09519 -2.50536e-016 -90 -2.24051 2.70358 1.82638 -0.374973 8.4511 20.0449 -0.9079 -11.8799 0.0167267 -1.3927e-009 8.75205e-006 -1.47609e-008 2.67485 5.80941 -0.235996 -4.35515 -5.64147 0.48384 36.7161 1.75482 0.0667081 38.6901 -21.0462 -0.0696086 6.87022 38.7507 9.25013 -9.50334 9.45985 0.399159 -43.7796 3.58028 -3.60211 -27.2817 -18.5328 -0.681087 -9.14141 43.1439 -7.42156 5.82328 9.61819 -0.917488 1.47373 1.05874 -4.94308 -0.251971 2.00365 -3.86375 0.282257 9.97184 -10.5299 2.99989 -12.4919 -0.0753739 0.0462048 0.000530889 0.662642 
189.531 103.073 9.19578 -4.06321 0.0846491 -90.134 -2.21844 2.60828 1.85486 -0.414294 8.46741 20.1717 -0.963095 -11.872 0.0167263 -1.3927e-009 8.75205e-006 -1.47609e-008 2.78649 6.03969 -0.198599 -4.4923 -5.85731 0.538272 36.8423 1.75482 0.0570781 38.7317 -19.8876 -0.048907 6.76284 37.486 9.84752 -9.92429 9.43765 0.413447 -43.6894 3.56503 -3.58576 -27.4633 -18.4057 -0.662592 -9.18052 43.2722 -7.37675 5.82328 9.61819 -0.917488 1.56677 1.74174 -4.19309 -0.285262 1.84218 -3.90449 0.341127 10.0671 -10.3339 2.92569 -12.5115 -0.0781482 0.0462048 0.000530889 0.662642 
189.621 103.072 9.15333 -3.9935 0.0207108 -90.241 -2.21587 2.4704 1.85591 -0.456965 8.48856 20.2768 -0.988315 -11.859 0.0167255 -1.3927e-009 8.75205e-006 -1.47609e-008 2.66059 5.93882 -0.172184 -4.28537 -5.72527 0.538404 36.7739 1.75482 0.0682651 38.8738 -19.2065 0.162433 6.72779 36.7746 10.1482 -10.0641 9.43427 0.366242 -43.8221 3.57358 -3.5823 -27.4821 -18.5298 -0.692175 -9.29948 43.593 -7.17315 5.82328 9.61819 -0.917488 1.37838 2.56103 -3.04796 -0.295789 1.62891 -3.87749 0.320531 10.2051 -10.2793 2.87093 -12.5268 -0.0805874 0.0462048 0.000530889 0.662642 
189.7 103.071 9.11526 -3.93723 -0.0192808 -90.2923 -2.23003 2.35131 1.83337 -0.481391 8.50551 20.3475 -0.995378 -11.8248 0.0167234 -1.3927e-009 8.75205e-006 -1.47609e-008 2.42281 5.60489 -0.164525 -3.89709 -5.26956 0.499973 36.5875 1.75482 0.0861557 39.0738 -19.2617 0.545031 6.6505 37.0556 10.1718 -9.82097 9.45579 0.243055 -44.0284 3.59552 -3.59399 -27.4897 -18.7993 -0.771232 -9.42457 43.89 -6.94189 5.82328 9.61819 -0.917488 1.08723 2.8328 -2.73175 -0.291105 1.45856 -3.82055 0.258402 10.312 -10.2598 2.81618 -12.5354 -0.0821779 0.0462048 0.000530889 0.662642 
189.766 103.07 9.07489 -3.9369 -0.0450991 -90.3422 -2.2272 2.3061 1.83534 -0.498953 8.5154 20.3855 -1.00629 -11.7897 0.0167212 -1.3927e-009 8.75205e-006 -1.47609e-008 2.33694 5.47189 -0.180594 -3.6917 -4.99829 0.460544 36.4969 1.75482 0.0922572 39.1999 -19.347 0.826725 6.59758 37.2915 10.169 -9.70201 9.47203 0.105257 -44.1039 3.61105 -3.61298 -27.5538 -18.7834 -0.712031 -9.3789 43.8411 -7.00483 5.82328 9.61819 -0.917488 1.06788 2.13467 -3.63693 -0.287185 1.39699 -3.79723 0.232676 10.3431 -10.1838 2.7533 -12.5282 -0.0833458 0.0462048 0.000530889 0.662642 
189.82 103.069 9.03465 -3.97291 -0.051496 -90.4215 -2.20524 2.30649 1.86493 -0.51706 8.53423 20.4315 -1.02146 -11.7756 0.0167204 -1.3927e-009 8.75205e-006 -1.47609e-008 2.40573 5.65672 -0.201478 -3.68369 -5.10929 0.438313 36.5298 1.75482 0.0919154 39.2077 -19.0129 0.905238 6.68277 36.8629 10.2014 -9.94548 9.45647 0.154804 -44.142 3.62626 -3.637 -27.5255 -18.5518 -0.497784 -9.29921 43.4853 -7.18302 5.82328 9.61819 -0.917488 1.22557 1.84859 -4.38988 -0.287618 1.38599 -3.81065 0.25145 10.3595 -10.0833 2.70868 -12.5121 -0.0843882 0.0462048 0.000530889 0.662642 
